<svg width="26" height="27" viewBox="0 0 26 27" fill="none" xmlns="http://www.w3.org/2000/svg">
<path d="M12.6438 3.81885C7.27453 3.81885 2.90625 8.18713 2.90625 13.5564C2.90625 18.9256 7.27453 23.2939 12.6438 23.2939C18.0131 23.2939 22.3813 18.9256 22.3813 13.5564C22.3813 8.18713 18.0131 3.81885 12.6438 3.81885ZM12.6438 22.2689C7.83968 22.2689 3.93125 18.3605 3.93125 13.5564C3.93125 8.75228 7.83968 4.84385 12.6438 4.84385C17.4479 4.84385 21.3563 8.75228 21.3563 13.5564C21.3563 18.3605 17.4479 22.2689 12.6438 22.2689Z" fill="#1A1A1A"/>
<path d="M15.7203 13.0442H13.1578V8.43194C13.1578 8.14886 12.9284 7.91943 12.6453 7.91943C12.3622 7.91943 12.1328 8.14886 12.1328 8.43194V13.5567C12.1328 13.8397 12.3622 14.0692 12.6453 14.0692H15.7203C16.0034 14.0692 16.2328 13.8397 16.2328 13.5567C16.2328 13.2736 16.0034 13.0442 15.7203 13.0442Z" fill="#1A1A1A"/>
</svg>
