<svg width="26" height="27" viewBox="0 0 26 27" fill="none" xmlns="http://www.w3.org/2000/svg">
<path d="M5.34528 16.0413C5.13821 16.2469 4.97412 16.4917 4.86253 16.7614C4.75094 17.0311 4.69409 17.3203 4.69528 17.6121V19.5209H4.18828C4.10209 19.5209 4.01942 19.5552 3.95847 19.6161C3.89752 19.6771 3.86328 19.7597 3.86328 19.8459V22.2899C3.86328 22.4911 3.94318 22.6839 4.08539 22.8262C4.22761 22.9684 4.42049 23.0483 4.62161 23.0483H13.3966C14.2389 23.6922 15.2545 24.0695 16.3129 24.1316C16.4278 24.1316 16.5296 24.1316 16.6531 24.1316C17.506 24.1357 18.3475 23.9356 19.1072 23.5479C19.867 23.1602 20.5229 22.5963 21.0201 21.9033C21.5173 21.2103 21.8413 20.4083 21.9652 19.5645C22.089 18.7206 22.009 17.8593 21.7319 17.0527C21.4548 16.246 20.9886 15.5174 20.3723 14.9278C19.7559 14.3382 19.0074 13.9048 18.1893 13.6636C17.3712 13.4225 16.5072 13.3807 15.6696 13.5418C14.8321 13.7029 14.0452 14.0622 13.3749 14.5896L12.5494 13.7663C12.4032 13.6207 12.2871 13.4477 12.2079 13.2571C12.1287 13.0666 12.0879 12.8622 12.0879 12.6559C12.0879 12.4495 12.1287 12.2452 12.2079 12.0546C12.2871 11.864 12.4032 11.691 12.5494 11.5454L14.8309 9.27045C15.2463 8.85217 15.4799 8.28692 15.4809 7.69745V5.79079H15.9944C16.0806 5.79079 16.1633 5.75655 16.2242 5.6956C16.2852 5.63465 16.3194 5.55198 16.3194 5.46579V3.02396C16.3194 2.82284 16.2395 2.62995 16.0973 2.48774C15.9551 2.34552 15.7622 2.26562 15.5611 2.26562H4.62161C4.42049 2.26562 4.22761 2.34552 4.08539 2.48774C3.94318 2.62995 3.86328 2.82284 3.86328 3.02396V5.46579C3.86328 5.55198 3.89752 5.63465 3.95847 5.6956C4.01942 5.75655 4.10209 5.79079 4.18828 5.79079H4.69528V7.69745C4.69635 8.28692 4.92992 8.85217 5.34528 9.27045L7.62894 11.5454C7.77523 11.691 7.89131 11.864 7.97052 12.0546C8.04973 12.2452 8.0905 12.4495 8.0905 12.6559C8.0905 12.8622 8.04973 13.0666 7.97052 13.2571C7.89131 13.4477 7.77523 13.6207 7.62894 13.7663L5.34528 16.0413ZM4.50461 22.2899V20.1709H11.4834C11.6944 20.9741 12.0915 21.7164 12.6426 22.3376C12.6578 22.3571 12.6773 22.3744 12.6946 22.3939H4.62161C4.59362 22.394 4.5667 22.3831 4.5465 22.3638C4.52631 22.3444 4.5144 22.3179 4.51328 22.2899H4.50461ZM11.4119 17.8201H7.05261V17.6663L9.29511 15.4303C9.62703 15.1012 9.8971 14.7152 10.0924 14.2906C10.2888 14.714 10.5588 15.0991 10.8898 15.4281L11.8734 16.4096C11.6544 16.8559 11.499 17.3307 11.4119 17.8201ZM16.9456 14.1259C18.1796 14.1652 19.3486 14.688 20.2006 15.5815C21.0525 16.4751 21.519 17.6677 21.4993 18.9022C21.4797 20.1366 20.9756 21.3138 20.0957 22.1798C19.2158 23.0458 18.0307 23.5312 16.7961 23.5312C15.5615 23.5312 14.3764 23.0458 13.4965 22.1798C12.6166 21.3138 12.1125 20.1366 12.0929 18.9022C12.0732 17.6677 12.5397 16.4751 13.3916 15.5815C14.2436 14.688 15.4126 14.1652 16.6466 14.1259C16.7463 14.1173 16.8459 14.1194 16.9456 14.1259ZM4.51328 3.02396C4.51384 2.9954 4.52543 2.96817 4.54562 2.94797C4.56582 2.92777 4.59306 2.91618 4.62161 2.91562H15.5633C15.592 2.91562 15.6196 2.92704 15.6399 2.94735C15.6602 2.96767 15.6716 2.99523 15.6716 3.02396V5.14512H4.51328V3.02396ZM8.74911 12.6548C8.75042 12.3629 8.69363 12.0737 8.58203 11.804C8.47043 11.5343 8.30627 11.2895 8.09911 11.0839L5.81328 8.80895C5.51681 8.51466 5.3486 8.11517 5.34528 7.69745V5.79079H14.8331V7.69745C14.8324 8.11443 14.6665 8.51414 14.3716 8.80895L12.0901 11.0839C11.8835 11.29 11.7196 11.5349 11.6077 11.8044C11.4958 12.074 11.4383 12.3629 11.4383 12.6548C11.4383 12.9466 11.4958 13.2356 11.6077 13.5051C11.7196 13.7747 11.8835 14.0195 12.0901 14.2256L12.8853 15.0208C12.6356 15.2684 12.4107 15.5398 12.2136 15.8311L11.3469 14.9644C10.8333 14.4567 10.5046 13.7915 10.4131 13.0751C10.4131 12.9889 10.3789 12.9062 10.3179 12.8453C10.257 12.7844 10.1743 12.7501 10.0881 12.7501C10.0019 12.7501 9.91925 12.7844 9.8583 12.8453C9.79735 12.9062 9.76311 12.9889 9.76311 13.0751C9.67093 13.7909 9.34315 14.4556 8.83144 14.9644L6.55644 17.2438C6.45881 17.3416 6.40356 17.4739 6.40261 17.6121V18.1451C6.40261 18.2313 6.43685 18.314 6.4978 18.3749C6.55875 18.4359 6.64142 18.4701 6.72761 18.4701H11.3188C11.2955 18.8199 11.3071 19.1712 11.3534 19.5188H5.34528V17.6121C5.34489 17.4055 5.38548 17.2009 5.4647 17.0101C5.54391 16.8193 5.66018 16.6462 5.80678 16.5006L8.09478 14.2256C8.30292 14.0205 8.46801 13.7759 8.58037 13.5062C8.69273 13.2364 8.7501 12.947 8.74911 12.6548ZM9.76961 12.2214C9.76961 12.3076 9.80385 12.3903 9.8648 12.4513C9.92575 12.5122 10.0084 12.5464 10.0946 12.5464C10.1808 12.5464 10.2635 12.5122 10.3244 12.4513C10.3854 12.3903 10.4196 12.3076 10.4196 12.2214C10.5111 11.5057 10.8399 10.8412 11.3534 10.3343L13.6349 8.05928C13.6837 8.01112 13.7224 7.95376 13.7488 7.89054C13.7752 7.82731 13.7888 7.75947 13.7888 7.69095V7.16445C13.7888 7.07826 13.7545 6.99559 13.6936 6.93464C13.6326 6.87369 13.55 6.83945 13.4638 6.83945H6.72761C6.64142 6.83945 6.55875 6.87369 6.4978 6.93464C6.43685 6.99559 6.40261 7.07826 6.40261 7.16445V7.69745C6.40275 7.8354 6.45724 7.96774 6.55428 8.06578L8.83794 10.3408C9.35169 10.8473 9.67988 11.5121 9.76961 12.2279V12.2214ZM7.05261 7.48945H13.1453V7.64328L10.8898 9.87928C10.5587 10.2091 10.2888 10.5949 10.0924 11.0189C9.89685 10.5945 9.62681 10.2085 9.29511 9.87928L7.05261 7.64328V7.48945ZM13.7108 21.3994C14.0488 21.7859 14.4601 22.1016 14.9208 22.3281C15.3816 22.5546 15.8828 22.6874 16.3953 22.7189C16.4798 22.7189 16.5621 22.7189 16.6466 22.7189C17.5426 22.7181 18.4113 22.4102 19.1079 21.8466C19.8045 21.2831 20.287 20.4979 20.475 19.6218C20.663 18.7457 20.5452 17.8317 20.1411 17.0319C19.737 16.2322 19.0711 15.595 18.2544 15.2266C17.4376 14.8582 16.5192 14.7807 15.6523 15.0072C14.7853 15.2336 14.0221 15.7502 13.4898 16.471C12.9575 17.1918 12.6883 18.0732 12.7269 18.9684C12.7655 19.8636 13.1097 20.7185 13.7021 21.3908L13.7108 21.3994ZM13.3901 18.6044C13.4418 17.7769 13.8065 16.9999 14.41 16.4314C15.0136 15.8628 15.8109 15.5452 16.6401 15.5429H16.8568C17.5017 15.5836 18.1201 15.8147 18.6337 16.2068C19.1473 16.599 19.5331 17.1347 19.7423 17.7461C19.9515 18.3575 19.9747 19.0172 19.809 19.6418C19.6432 20.2664 19.296 20.8278 18.8112 21.2551C18.3263 21.6823 17.7257 21.9562 17.0852 22.0421C16.4447 22.128 15.7932 22.022 15.2129 21.7376C14.6326 21.4532 14.1497 21.0031 13.8253 20.4443C13.5008 19.8854 13.3494 19.2429 13.3901 18.5979V18.6044ZM16.3259 18.8211V16.7129H16.9759V18.4853H18.7483V19.1353H16.6509C16.5647 19.1353 16.4821 19.101 16.4211 19.0401C16.3602 18.9791 16.3259 18.8965 16.3259 18.8103V18.8211Z" fill="#1A1A1A"/>
</svg>
