<svg width="20" height="21" viewBox="0 0 20 21" fill="none" xmlns="http://www.w3.org/2000/svg">
<path d="M15.8333 1.03125H4.16667C3.062 1.03257 2.00296 1.47198 1.22185 2.2531C0.440735 3.03421 0.00132321 4.09325 0 5.19792L0 15.1979C0.00132321 16.3026 0.440735 17.3616 1.22185 18.1427C2.00296 18.9238 3.062 19.3633 4.16667 19.3646H15.8333C16.938 19.3633 17.997 18.9238 18.7782 18.1427C19.5593 17.3616 19.9987 16.3026 20 15.1979V5.19792C19.9987 4.09325 19.5593 3.03421 18.7782 2.2531C17.997 1.47198 16.938 1.03257 15.8333 1.03125ZM4.16667 2.69792H15.8333C16.3323 2.6989 16.8196 2.84918 17.2325 3.12942C17.6453 3.40966 17.9649 3.80704 18.15 4.27042L11.7683 10.6529C11.2987 11.1207 10.6628 11.3833 10 11.3833C9.33715 11.3833 8.70131 11.1207 8.23167 10.6529L1.85 4.27042C2.03512 3.80704 2.35468 3.40966 2.76754 3.12942C3.1804 2.84918 3.66768 2.6989 4.16667 2.69792ZM15.8333 17.6979H4.16667C3.50363 17.6979 2.86774 17.4345 2.3989 16.9657C1.93006 16.4968 1.66667 15.861 1.66667 15.1979V6.44792L7.05333 11.8312C7.83552 12.6115 8.89521 13.0496 10 13.0496C11.1048 13.0496 12.1645 12.6115 12.9467 11.8312L18.3333 6.44792V15.1979C18.3333 15.861 18.0699 16.4968 17.6011 16.9657C17.1323 17.4345 16.4964 17.6979 15.8333 17.6979Z" fill="#FF8C00"/>
</svg>
