<svg width="31" height="24" viewBox="0 0 31 24" fill="none" xmlns="http://www.w3.org/2000/svg">
<path d="M1.7059 0.528748C0.833887 0.528748 0.126953 1.23889 0.126953 2.11495C0.126953 2.99102 0.833887 3.70116 1.7059 3.70116H28.548C29.42 3.70116 30.127 2.99102 30.127 2.11495C30.127 1.23889 29.42 0.528748 28.548 0.528748H1.7059ZM1.7059 10.4425C0.833887 10.4425 0.126953 11.1527 0.126953 12.0287C0.126953 12.9048 0.833887 13.615 1.7059 13.615H28.548C29.42 13.615 30.127 12.9048 30.127 12.0287C30.127 11.1527 29.42 10.4425 28.548 10.4425H1.7059ZM1.7059 20.3563C0.833887 20.3563 0.126953 21.0665 0.126953 21.9425C0.126953 22.8186 0.833887 23.5287 1.7059 23.5287H28.548C29.42 23.5287 30.127 22.8186 30.127 21.9425C30.127 21.0665 29.42 20.3563 28.548 20.3563H1.7059Z" fill="black"/>
</svg>