<svg width="22" height="23" viewBox="0 0 22 23" fill="none" xmlns="http://www.w3.org/2000/svg">
<path d="M18.9295 19.0332L15.1475 15.2512V15.252C16.7051 13.4108 17.1958 10.8936 16.4433 8.60301C15.6908 6.31171 13.8034 4.57504 11.458 4.01597C9.11259 3.45685 6.64454 4.15521 4.93963 5.86002C3.23482 7.56483 2.5364 10.033 3.09558 12.3784C3.6547 14.7238 5.39132 16.6112 7.68262 17.3636C9.97319 18.1161 12.4904 17.6255 14.3316 16.0679L18.1135 19.8499H18.1128C18.3394 20.0685 18.6994 20.0649 18.9223 19.8427C19.1445 19.6197 19.1481 19.2598 18.9295 19.0332ZM4.09196 10.7841C4.09196 9.25313 4.70016 7.78502 5.78233 6.70272C6.86451 5.62042 8.33276 5.01235 9.86368 5.01235C11.3946 5.01235 12.8627 5.62055 13.945 6.70272C15.0273 7.78489 15.6354 9.25315 15.6354 10.7841C15.6354 12.315 15.0272 13.7831 13.945 14.8654C12.8629 15.9477 11.3946 16.5558 9.86368 16.5558C8.33346 16.5543 6.86667 15.9454 5.78455 14.8632C4.70236 13.7811 4.09342 12.3143 4.09196 10.7841Z" fill="#1A1A1A"/>
</svg>
