<svg width="24" height="25" viewBox="0 0 24 25" fill="none" xmlns="http://www.w3.org/2000/svg">
<g clip-path="url(#clip0_435_391)">
<path d="M17.5627 21.1989C17.4028 21.1996 17.245 21.1619 17.1027 21.0889L12.0027 18.4189L6.90269 21.0889C6.73709 21.176 6.55037 21.2149 6.36377 21.2011C6.17717 21.1874 5.99817 21.1216 5.84712 21.0111C5.69607 20.9007 5.57903 20.7501 5.50931 20.5765C5.43958 20.4029 5.41997 20.2132 5.45269 20.0289L6.45269 14.3989L2.33269 10.3989C2.20415 10.2707 2.11296 10.1098 2.06892 9.93363C2.02488 9.75745 2.02964 9.57261 2.08269 9.39894C2.14065 9.22121 2.24727 9.06329 2.39044 8.94309C2.53362 8.8229 2.70761 8.74524 2.89269 8.71894L8.59269 7.88893L11.1027 2.75893C11.1846 2.58986 11.3124 2.44728 11.4716 2.34751C11.6308 2.24774 11.8148 2.19482 12.0027 2.19482C12.1905 2.19482 12.3746 2.24774 12.5338 2.34751C12.693 2.44728 12.8208 2.58986 12.9027 2.75893L15.4427 7.87893L21.1427 8.70894C21.3278 8.73524 21.5018 8.8129 21.6449 8.93309C21.7881 9.05329 21.8947 9.21121 21.9527 9.38894C22.0057 9.56261 22.0105 9.74745 21.9665 9.92363C21.9224 10.0998 21.8312 10.2607 21.7027 10.3889L17.5827 14.3889L18.5827 20.0189C18.6184 20.2064 18.5997 20.4002 18.5288 20.5774C18.4579 20.7546 18.3378 20.9078 18.1827 21.0189C18.0016 21.1458 17.7836 21.2091 17.5627 21.1989Z" fill="#767676" fill-opacity="0.3"/>
</g>
<defs>
<clipPath id="clip0_435_391">
<rect width="24" height="24" fill="white" transform="translate(0 0.19873)"/>
</clipPath>
</defs>
</svg>
